<mxfile host="app.diagrams.net" modified="2023-12-11T08:35:53.349Z" agent="Mozilla/5.0 (Windows NT 10.0; Win64; x64) AppleWebKit/537.36 (KHTML, like Gecko) Chrome/119.0.0.0 Safari/537.36" etag="4MMIHbl3EgxC1tvyEB5k" version="22.1.7" type="github">
  <diagram name="Sida-1" id="yPpwmeV9KJYCm5tZkfwi">
    <mxGraphModel dx="1478" dy="756" grid="1" gridSize="10" guides="1" tooltips="1" connect="1" arrows="1" fold="1" page="1" pageScale="1" pageWidth="827" pageHeight="1169" math="0" shadow="0">
      <root>
        <mxCell id="0" />
        <mxCell id="1" parent="0" />
        <mxCell id="3TbTK0MZ1GDGXiROB_Ax-4" value="" style="edgeStyle=orthogonalEdgeStyle;rounded=0;orthogonalLoop=1;jettySize=auto;html=1;" edge="1" parent="1" source="3TbTK0MZ1GDGXiROB_Ax-1" target="3TbTK0MZ1GDGXiROB_Ax-2">
          <mxGeometry relative="1" as="geometry" />
        </mxCell>
        <mxCell id="3TbTK0MZ1GDGXiROB_Ax-1" value="Start" style="ellipse;whiteSpace=wrap;html=1;" vertex="1" parent="1">
          <mxGeometry x="-30" y="270" width="120" height="80" as="geometry" />
        </mxCell>
        <mxCell id="3TbTK0MZ1GDGXiROB_Ax-5" value="" style="edgeStyle=orthogonalEdgeStyle;rounded=0;orthogonalLoop=1;jettySize=auto;html=1;" edge="1" parent="1" source="3TbTK0MZ1GDGXiROB_Ax-2" target="3TbTK0MZ1GDGXiROB_Ax-3">
          <mxGeometry relative="1" as="geometry" />
        </mxCell>
        <mxCell id="3TbTK0MZ1GDGXiROB_Ax-2" value="Skapa ett fält (array) och skriv in värden 8,4,6" style="rounded=0;whiteSpace=wrap;html=1;" vertex="1" parent="1">
          <mxGeometry x="-30" y="400" width="120" height="60" as="geometry" />
        </mxCell>
        <mxCell id="3TbTK0MZ1GDGXiROB_Ax-9" value="" style="edgeStyle=orthogonalEdgeStyle;rounded=0;orthogonalLoop=1;jettySize=auto;html=1;entryX=0.5;entryY=0;entryDx=0;entryDy=0;" edge="1" parent="1" source="3TbTK0MZ1GDGXiROB_Ax-3" target="3TbTK0MZ1GDGXiROB_Ax-7">
          <mxGeometry relative="1" as="geometry">
            <mxPoint x="30" y="619.9999999999998" as="targetPoint" />
          </mxGeometry>
        </mxCell>
        <mxCell id="3TbTK0MZ1GDGXiROB_Ax-3" value="Beräkna medelvärdet av fältet och spara kvoten i en decimaltalsvariabel" style="rounded=0;whiteSpace=wrap;html=1;" vertex="1" parent="1">
          <mxGeometry x="-30" y="500" width="120" height="60" as="geometry" />
        </mxCell>
        <mxCell id="3TbTK0MZ1GDGXiROB_Ax-11" value="" style="edgeStyle=orthogonalEdgeStyle;rounded=0;orthogonalLoop=1;jettySize=auto;html=1;" edge="1" parent="1" source="3TbTK0MZ1GDGXiROB_Ax-7" target="3TbTK0MZ1GDGXiROB_Ax-8">
          <mxGeometry relative="1" as="geometry" />
        </mxCell>
        <mxCell id="3TbTK0MZ1GDGXiROB_Ax-7" value="Skriv ut medelvärdet" style="rounded=0;whiteSpace=wrap;html=1;" vertex="1" parent="1">
          <mxGeometry x="-30" y="620" width="120" height="60" as="geometry" />
        </mxCell>
        <mxCell id="3TbTK0MZ1GDGXiROB_Ax-8" value="Slut" style="ellipse;whiteSpace=wrap;html=1;" vertex="1" parent="1">
          <mxGeometry x="-30" y="730" width="120" height="80" as="geometry" />
        </mxCell>
      </root>
    </mxGraphModel>
  </diagram>
</mxfile>
